<?xml version="1.0" encoding="utf-8"?>
<!-- Generator: Adobe Illustrator 23.0.2, SVG Export Plug-In . SVG Version: 6.00 Build 0)  -->
<svg version="1.1" id="图层_1" xmlns="http://www.w3.org/2000/svg" xmlns:xlink="http://www.w3.org/1999/xlink" x="0px" y="0px"
	 viewBox="0 0 515.9 728.5" style="enable-background:new 0 0 515.9 728.5;" xml:space="preserve">
<style type="text/css">
	.st0{fill:#EEF0F3;}
	.st1{fill:url(#SVGID_1_);}
	.st2{fill:url(#SVGID_2_);}
	.st3{fill:url(#SVGID_3_);}
	.st4{fill:url(#SVGID_4_);}
	.st5{fill:url(#SVGID_5_);}
	.st6{fill:url(#SVGID_6_);}
	.st7{fill:url(#SVGID_7_);}
	.st8{fill:url(#SVGID_8_);}
	.st9{fill:url(#SVGID_9_);}
	.st10{fill:url(#SVGID_10_);}
	.st11{fill:url(#SVGID_11_);}
	.st12{fill:url(#SVGID_12_);}
	.st13{fill:url(#SVGID_13_);}
	.st14{fill:url(#SVGID_14_);}
	.st15{fill:url(#SVGID_15_);}
	.st16{fill:url(#SVGID_16_);}
	.st17{fill:url(#SVGID_17_);}
	.st18{fill:url(#SVGID_18_);}
	.st19{fill:none;stroke:#EEF0F3;stroke-width:3;stroke-miterlimit:10;}
	.st20{fill:url(#SVGID_19_);}
	.st21{fill:url(#SVGID_20_);}
	.st22{fill:url(#SVGID_21_);}
	.st23{fill:url(#SVGID_22_);}
	.st24{fill:url(#SVGID_23_);}
	.st25{fill:url(#SVGID_24_);}
	.st26{fill:url(#SVGID_25_);}
	.st27{fill:url(#SVGID_26_);}
	.st28{fill:url(#SVGID_27_);}
</style>
<g>
	<g>
		<g>
			<path class="st0" d="M232.1,310.8c6-4.6,13-8,20.6-9.7c3.7-0.9,7.6-1.3,11.5-1.4c3.9,0,7.7,0.4,11.5,1.1
				c3.8,0.8,7.5,1.9,11.1,3.4c3.5,1.6,6.9,3.4,10.1,5.7c6.3,4.4,11.6,10.3,15.2,16.9c-4.7-5.9-10.3-11-16.5-14.9
				c-3.1-1.9-6.4-3.6-9.8-5c-0.9-0.3-1.7-0.7-2.6-1l-2.6-0.9l-2.7-0.7c-0.9-0.2-1.8-0.4-2.7-0.6c-7.2-1.5-14.7-1.6-21.9-0.4
				C245.7,304.5,238.7,307.2,232.1,310.8z"/>
		</g>
		<g>
			<path class="st0" d="M243,412.4c-6.5-1.9-12.6-5.2-17.9-9.6c-2.7-2.2-5.1-4.7-7.3-7.3c-2.2-2.7-4.1-5.5-5.8-8.6
				c-3.3-6.1-5.4-12.8-6.2-19.6c-0.8-6.8-0.2-13.8,1.7-20.2c-0.7,6.7-0.6,13.4,0.6,19.9c0.6,3.2,1.4,6.4,2.5,9.5
				c1.1,3.1,2.4,6.1,4,9c1.5,2.9,3.4,5.6,5.4,8.2c2,2.6,4.2,5,6.6,7.3C231.4,405.6,237,409.3,243,412.4z"/>
		</g>
		<g>
			<path class="st0" d="M317.1,336.3c3.2,5.9,5,12.5,5.6,19.3c0.3,3.4,0.2,6.8-0.1,10.2c-0.4,3.4-1,6.7-2,10c-1,3.3-2.3,6.4-3.8,9.5
				c-1.6,3-3.4,5.9-5.5,8.5c-4.2,5.3-9.4,9.8-15.3,13c5.2-4.2,9.7-9,13.4-14.4c1.8-2.7,3.5-5.5,4.9-8.4c1.4-2.9,2.6-5.9,3.5-9
				c1-3.1,1.6-6.3,2.1-9.5c0.5-3.2,0.6-6.5,0.6-9.7C320.2,349.2,319.1,342.6,317.1,336.3z"/>
		</g>
	</g>
	<g>
		<g>
			<linearGradient id="SVGID_1_" gradientUnits="userSpaceOnUse" x1="224.1816" y1="332.3941" x2="275.9281" y2="332.3941">
				<stop  offset="0" style="stop-color:#7F5A69"/>
				<stop  offset="0.1395" style="stop-color:#835F6D"/>
				<stop  offset="0.2969" style="stop-color:#8D6C7A"/>
				<stop  offset="0.463" style="stop-color:#9F838E"/>
				<stop  offset="0.6351" style="stop-color:#B7A2AB"/>
				<stop  offset="0.8119" style="stop-color:#D7CBD0"/>
				<stop  offset="0.9902" style="stop-color:#FDFCFC"/>
				<stop  offset="1" style="stop-color:#FFFFFF"/>
			</linearGradient>
			<path class="st1" d="M225.6,347.2c0.9-5.2,3.2-10.2,6.4-14.5c1.6-2.2,3.5-4.1,5.5-5.9c2.1-1.8,4.3-3.3,6.7-4.6
				c2.4-1.3,4.9-2.3,7.5-3.1c2.6-0.7,5.3-1.2,8-1.4c5.4-0.3,10.8,0.5,15.7,2.6c-5.2-0.9-10.4-1.1-15.4-0.3c-2.5,0.4-5,0.9-7.4,1.8
				c-2.4,0.8-4.7,1.8-6.9,3c-4.5,2.4-8.5,5.6-11.9,9.4C230.4,337.9,227.8,342.4,225.6,347.2z"/>
		</g>
		<g>
			<linearGradient id="SVGID_2_" gradientUnits="userSpaceOnUse" x1="227.3251" y1="388.7095" x2="277.0257" y2="388.7095">
				<stop  offset="0" style="stop-color:#7F5A69"/>
				<stop  offset="0.1395" style="stop-color:#835F6D"/>
				<stop  offset="0.2969" style="stop-color:#8D6C7A"/>
				<stop  offset="0.463" style="stop-color:#9F838E"/>
				<stop  offset="0.6351" style="stop-color:#B7A2AB"/>
				<stop  offset="0.8119" style="stop-color:#D7CBD0"/>
				<stop  offset="0.9902" style="stop-color:#FDFCFC"/>
				<stop  offset="1" style="stop-color:#FFFFFF"/>
			</linearGradient>
			<path class="st2" d="M276.6,396.7c-4.2,2-9,3.1-13.8,3.2c-2.4,0.1-4.8-0.2-7.2-0.6c-2.4-0.4-4.7-1.1-7-2c-2.2-0.9-4.4-2-6.4-3.4
				c-2-1.3-3.9-2.8-5.6-4.5c-3.4-3.4-6.2-7.4-7.8-11.9c2.8,3.8,5.9,7.2,9.4,10.1c1.8,1.4,3.6,2.8,5.6,3.9c1.9,1.2,4,2.2,6.1,3
				c2.1,0.9,4.2,1.5,6.4,2c2.2,0.5,4.4,0.8,6.7,1C267.3,397.9,271.9,397.6,276.6,396.7z"/>
		</g>
		<g>
			<linearGradient id="SVGID_3_" gradientUnits="userSpaceOnUse" x1="281.7646" y1="346.6691" x2="305.5516" y2="346.6691">
				<stop  offset="0" style="stop-color:#7F5A69"/>
				<stop  offset="0.1395" style="stop-color:#835F6D"/>
				<stop  offset="0.2969" style="stop-color:#8D6C7A"/>
				<stop  offset="0.463" style="stop-color:#9F838E"/>
				<stop  offset="0.6351" style="stop-color:#B7A2AB"/>
				<stop  offset="0.8119" style="stop-color:#D7CBD0"/>
				<stop  offset="0.9902" style="stop-color:#FDFCFC"/>
				<stop  offset="1" style="stop-color:#FFFFFF"/>
			</linearGradient>
			<path class="st3" d="M282.5,323.1c4.4,1.6,8.4,4.2,11.8,7.6c1.7,1.7,3.2,3.5,4.6,5.5c1.3,2,2.5,4.1,3.4,6.3
				c0.9,2.2,1.6,4.5,2.1,6.8c0.5,2.3,0.8,4.7,0.8,7.1c0.1,4.8-0.9,9.5-2.8,13.7c0.7-4.6,0.9-9.2,0.5-13.6c-0.3-2.2-0.6-4.4-1.2-6.6
				c-0.5-2.2-1.2-4.3-2.1-6.3c-0.8-2.1-1.9-4-3-5.9c-1.1-1.9-2.5-3.7-3.9-5.4C289.7,328.9,286.3,325.8,282.5,323.1z"/>
		</g>
	</g>
	<g>
		<g>
			<linearGradient id="SVGID_4_" gradientUnits="userSpaceOnUse" x1="254.6767" y1="342.3082" x2="284.4673" y2="342.3082">
				<stop  offset="0" style="stop-color:#7F5A69"/>
				<stop  offset="0.1395" style="stop-color:#835F6D"/>
				<stop  offset="0.2969" style="stop-color:#8D6C7A"/>
				<stop  offset="0.463" style="stop-color:#9F838E"/>
				<stop  offset="0.6351" style="stop-color:#B7A2AB"/>
				<stop  offset="0.8119" style="stop-color:#D7CBD0"/>
				<stop  offset="0.9902" style="stop-color:#FDFCFC"/>
				<stop  offset="1" style="stop-color:#FFFFFF"/>
			</linearGradient>
			<path class="st4" d="M255.3,338.8c2.2-1.7,5-2.7,7.9-3.1c2.9-0.3,5.9,0,8.6,1.1c2.8,1,5.3,2.7,7.3,4.8c2,2.1,3.4,4.7,4,7.5
				c-1.7-2.2-3.5-4.2-5.6-5.8c-2.1-1.6-4.3-2.9-6.7-3.7c-2.4-0.9-4.9-1.4-7.5-1.5C260.7,337.9,258.1,338.2,255.3,338.8z"/>
		</g>
		<g>
			<linearGradient id="SVGID_5_" gradientUnits="userSpaceOnUse" x1="241.5986" y1="363.1649" x2="254.2336" y2="363.1649">
				<stop  offset="0" style="stop-color:#7F5A69"/>
				<stop  offset="0.1395" style="stop-color:#835F6D"/>
				<stop  offset="0.2969" style="stop-color:#8D6C7A"/>
				<stop  offset="0.463" style="stop-color:#9F838E"/>
				<stop  offset="0.6351" style="stop-color:#B7A2AB"/>
				<stop  offset="0.8119" style="stop-color:#D7CBD0"/>
				<stop  offset="0.9902" style="stop-color:#FDFCFC"/>
				<stop  offset="1" style="stop-color:#FFFFFF"/>
			</linearGradient>
			<path class="st5" d="M253.5,375.9c-2.4-0.7-4.7-2.1-6.5-4c-1.8-1.9-3.2-4.1-4.1-6.6c-0.9-2.5-1.2-5.1-1-7.7
				c0.3-2.6,1.1-5.1,2.5-7.2c-0.3,2.5-0.4,4.9-0.2,7.2c0.2,2.3,0.7,4.5,1.4,6.7c0.8,2.1,1.8,4.2,3.1,6.1
				C250.1,372.4,251.7,374.1,253.5,375.9z"/>
		</g>
		<g>
			<linearGradient id="SVGID_6_" gradientUnits="userSpaceOnUse" x1="272.1885" y1="364.8005" x2="286.5198" y2="364.8005">
				<stop  offset="0" style="stop-color:#7F5A69"/>
				<stop  offset="0.1395" style="stop-color:#835F6D"/>
				<stop  offset="0.2969" style="stop-color:#8D6C7A"/>
				<stop  offset="0.463" style="stop-color:#9F838E"/>
				<stop  offset="0.6351" style="stop-color:#B7A2AB"/>
				<stop  offset="0.8119" style="stop-color:#D7CBD0"/>
				<stop  offset="0.9902" style="stop-color:#FDFCFC"/>
				<stop  offset="1" style="stop-color:#FFFFFF"/>
			</linearGradient>
			<path class="st6" d="M284.4,352.8c1.2,2.2,1.7,4.8,1.7,7.3c0,2.6-0.7,5.1-1.8,7.5c-1.1,2.3-2.7,4.4-4.7,6.1
				c-2,1.6-4.3,2.8-6.8,3.3c1.9-1.6,3.6-3.2,5.1-4.9c1.5-1.8,2.7-3.7,3.7-5.7c1-2,1.7-4.2,2.1-6.4
				C284.2,357.6,284.4,355.2,284.4,352.8z"/>
		</g>
	</g>
	<g>
		<g>
			<linearGradient id="SVGID_7_" gradientUnits="userSpaceOnUse" x1="246.4344" y1="348.2361" x2="264.7951" y2="348.2361">
				<stop  offset="0" style="stop-color:#7F5A69"/>
				<stop  offset="0.1395" style="stop-color:#835F6D"/>
				<stop  offset="0.2969" style="stop-color:#8D6C7A"/>
				<stop  offset="0.463" style="stop-color:#9F838E"/>
				<stop  offset="0.6351" style="stop-color:#B7A2AB"/>
				<stop  offset="0.8119" style="stop-color:#D7CBD0"/>
				<stop  offset="0.9902" style="stop-color:#FDFCFC"/>
				<stop  offset="1" style="stop-color:#FFFFFF"/>
			</linearGradient>
			<path class="st7" d="M247.9,355.6c-0.4-2.1-0.2-4.3,0.7-6.3c0.8-2,2.2-3.9,3.9-5.3c1.7-1.4,3.7-2.4,5.9-2.9
				c2.1-0.4,4.4-0.3,6.3,0.5c-2.1,0.5-3.9,1-5.6,1.8c-1.7,0.8-3.3,1.7-4.7,2.9c-1.4,1.2-2.6,2.5-3.7,4.1
				C249.6,351.9,248.7,353.7,247.9,355.6z"/>
		</g>
		<g>
			<linearGradient id="SVGID_8_" gradientUnits="userSpaceOnUse" x1="250.2758" y1="370.3272" x2="271.7501" y2="370.3272">
				<stop  offset="0" style="stop-color:#7F5A69"/>
				<stop  offset="0.1395" style="stop-color:#835F6D"/>
				<stop  offset="0.2969" style="stop-color:#8D6C7A"/>
				<stop  offset="0.463" style="stop-color:#9F838E"/>
				<stop  offset="0.6351" style="stop-color:#B7A2AB"/>
				<stop  offset="0.8119" style="stop-color:#D7CBD0"/>
				<stop  offset="0.9902" style="stop-color:#FDFCFC"/>
				<stop  offset="1" style="stop-color:#FFFFFF"/>
			</linearGradient>
			<path class="st8" d="M271,370.3c-1.3,1.4-3,2.4-4.9,3c-1.9,0.5-3.9,0.7-5.8,0.3c-1.9-0.3-3.8-1.1-5.4-2.3
				c-1.6-1.2-2.8-2.7-3.5-4.5c1.6,1,3.1,1.8,4.7,2.5c1.5,0.6,3.1,1.1,4.7,1.4c1.6,0.3,3.2,0.4,4.9,0.3
				C267.4,371,269.1,370.7,271,370.3z"/>
		</g>
		<g>
			<linearGradient id="SVGID_9_" gradientUnits="userSpaceOnUse" x1="267.0997" y1="350.2137" x2="280.2376" y2="350.2137">
				<stop  offset="0" style="stop-color:#7F5A69"/>
				<stop  offset="0.1395" style="stop-color:#835F6D"/>
				<stop  offset="0.2969" style="stop-color:#8D6C7A"/>
				<stop  offset="0.463" style="stop-color:#9F838E"/>
				<stop  offset="0.6351" style="stop-color:#B7A2AB"/>
				<stop  offset="0.8119" style="stop-color:#D7CBD0"/>
				<stop  offset="0.9902" style="stop-color:#FDFCFC"/>
				<stop  offset="1" style="stop-color:#FFFFFF"/>
			</linearGradient>
			<path class="st9" d="M267.5,342.1c1.9-0.1,3.8,0.4,5.5,1.4c1.7,0.9,3.2,2.3,4.3,3.9c1.1,1.6,1.9,3.5,2.1,5.4
				c0.3,1.9,0.1,3.9-0.7,5.6c-0.5-1.8-0.9-3.5-1.6-5c-0.6-1.5-1.4-2.9-2.3-4.3c-0.9-1.3-2-2.5-3.2-3.7
				C270.4,344.2,269,343.2,267.5,342.1z"/>
		</g>
	</g>
	<g>
		<g>
			<linearGradient id="SVGID_10_" gradientUnits="userSpaceOnUse" x1="213.3979" y1="325.5316" x2="276.9111" y2="325.5316">
				<stop  offset="0" style="stop-color:#7F5A69"/>
				<stop  offset="0.1395" style="stop-color:#835F6D"/>
				<stop  offset="0.2969" style="stop-color:#8D6C7A"/>
				<stop  offset="0.463" style="stop-color:#9F838E"/>
				<stop  offset="0.6351" style="stop-color:#B7A2AB"/>
				<stop  offset="0.8119" style="stop-color:#D7CBD0"/>
				<stop  offset="0.9902" style="stop-color:#FDFCFC"/>
				<stop  offset="1" style="stop-color:#FFFFFF"/>
			</linearGradient>
			<path class="st10" d="M214.8,343.7c1.3-6.4,4.1-12.5,8.2-17.8c2-2.7,4.3-5.1,6.8-7.2c2.6-2.1,5.3-4,8.3-5.6
				c2.9-1.6,6-2.8,9.2-3.8c3.2-0.9,6.5-1.5,9.8-1.7c6.6-0.5,13.3,0.5,19.3,3c-6.4-1.3-12.8-1.5-19.1-0.7c-3.1,0.5-6.2,1.1-9.2,2.1
				c-0.7,0.3-1.5,0.5-2.2,0.8l-2.2,0.9c-1.4,0.7-2.9,1.3-4.2,2.1c-5.5,3-10.5,6.9-14.7,11.7C220.6,332.1,217.3,337.7,214.8,343.7z"
				/>
		</g>
		<g>
			<linearGradient id="SVGID_11_" gradientUnits="userSpaceOnUse" x1="217.2564" y1="394.8655" x2="278.2579" y2="394.8655">
				<stop  offset="0" style="stop-color:#7F5A69"/>
				<stop  offset="0.1395" style="stop-color:#835F6D"/>
				<stop  offset="0.2969" style="stop-color:#8D6C7A"/>
				<stop  offset="0.463" style="stop-color:#9F838E"/>
				<stop  offset="0.6351" style="stop-color:#B7A2AB"/>
				<stop  offset="0.8119" style="stop-color:#D7CBD0"/>
				<stop  offset="0.9902" style="stop-color:#FDFCFC"/>
				<stop  offset="1" style="stop-color:#FFFFFF"/>
			</linearGradient>
			<path class="st11" d="M277.8,404.9c-5.3,2.4-11.2,3.6-17.1,3.7c-3,0-5.9-0.3-8.8-0.8c-2.9-0.6-5.8-1.4-8.6-2.5
				c-5.5-2.2-10.6-5.5-14.9-9.6c-4.3-4.1-7.7-9.1-9.8-14.5c3.3,4.8,7.1,9.1,11.4,12.7c2.2,1.8,4.4,3.5,6.9,4.9
				c2.4,1.5,4.9,2.7,7.5,3.7c2.6,1.1,5.3,1.9,8,2.5c2.7,0.7,5.5,1,8.3,1.2C266.4,406.6,272.1,406.1,277.8,404.9z"/>
		</g>
		<g>
			<linearGradient id="SVGID_12_" gradientUnits="userSpaceOnUse" x1="284.3892" y1="343.0486" x2="313.2708" y2="343.0486">
				<stop  offset="0" style="stop-color:#7F5A69"/>
				<stop  offset="0.1395" style="stop-color:#835F6D"/>
				<stop  offset="0.2969" style="stop-color:#8D6C7A"/>
				<stop  offset="0.463" style="stop-color:#9F838E"/>
				<stop  offset="0.6351" style="stop-color:#B7A2AB"/>
				<stop  offset="0.8119" style="stop-color:#D7CBD0"/>
				<stop  offset="0.9902" style="stop-color:#FDFCFC"/>
				<stop  offset="1" style="stop-color:#FFFFFF"/>
			</linearGradient>
			<path class="st12" d="M285.1,314c5.4,2.1,10.3,5.4,14.4,9.6c2.1,2.1,3.9,4.4,5.6,6.8c1.6,2.4,3,5,4.2,7.7c1.1,2.7,2,5.5,2.7,8.4
				c0.6,2.9,1,5.8,1,8.7c0.1,5.8-0.9,11.7-3.2,17c1-5.6,1.4-11.3,0.8-16.8c-0.3-2.8-0.7-5.5-1.4-8.2c-0.7-2.7-1.5-5.3-2.6-7.9
				c-1.1-2.6-2.3-5-3.8-7.4c-1.4-2.4-3.1-4.6-4.9-6.7C294.1,320.9,289.9,317.2,285.1,314z"/>
		</g>
	</g>
	<g>
		<g>
			<path class="st0" d="M168,394.4c-2.9-6.2-5-12.7-6.6-19.3c-1.6-6.7-2.3-13.5-2.4-20.4c-0.1-6.9,0.5-13.8,1.8-20.5
				c1.3-6.8,3.4-13.4,6-19.7c0.7-1.6,1.3-3.2,2.1-4.7l2.3-4.6l2.6-4.5c0.9-1.5,1.8-2.9,2.8-4.4c3.9-5.7,8.3-11,13.3-15.8
				c5-4.8,10.4-9,16.2-12.7c5.8-3.6,12-6.7,18.4-9c-12.3,5.7-23.5,13.6-32.9,23.3c-4.7,4.8-8.9,10.1-12.6,15.7
				c-0.9,1.4-1.8,2.8-2.7,4.3l-2.5,4.4l-2.2,4.5c-0.8,1.5-1.3,3.1-2,4.6c-2.6,6.2-4.6,12.6-6,19.2c-1.4,6.6-2.1,13.3-2.2,20
				C161.1,368.1,163.5,381.6,168,394.4z"/>
		</g>
		<g>
			<path class="st0" d="M351.5,410.8c-6,10.5-14.1,20-23.8,27.6c-4.8,3.8-10,7.1-15.4,10c-5.4,2.9-11.1,5.2-17,7.1
				c-11.7,3.6-24.2,5.1-36.4,4.3c-12.2-0.8-24.3-4-35.2-9.2c5.7,2,11.5,3.7,17.4,4.8c5.9,1.1,11.9,1.9,17.9,2c6,0.1,12-0.1,17.9-0.9
				c5.9-0.8,11.8-2.1,17.5-3.9c11.4-3.5,22.2-9,31.9-16.1C336,429.4,344.4,420.6,351.5,410.8z"/>
		</g>
		<g>
			<path class="st0" d="M243,253.1c11.6-3,23.9-3.7,35.9-2.2c6,0.7,11.9,2.1,17.7,3.9c5.8,1.8,11.4,4.2,16.8,7
				c5.4,2.9,10.5,6.2,15.2,9.9c4.7,3.8,9.2,7.9,13.2,12.5c8,9.1,14.3,19.7,18.2,31c-5.1-10.8-11.8-20.8-20-29.4
				c-4.1-4.3-8.5-8.3-13.2-11.8c-4.7-3.6-9.7-6.8-14.9-9.5c-10.4-5.6-21.7-9.3-33.4-11.3C266.9,251.3,254.9,251.3,243,253.1z"/>
		</g>
	</g>
	<g>
		<g>
			<linearGradient id="SVGID_13_" gradientUnits="userSpaceOnUse" x1="116.2197" y1="309.3811" x2="211.9133" y2="309.3811">
				<stop  offset="0" style="stop-color:#7F5A69"/>
				<stop  offset="0.1395" style="stop-color:#835F6D"/>
				<stop  offset="0.2969" style="stop-color:#8D6C7A"/>
				<stop  offset="0.463" style="stop-color:#9F838E"/>
				<stop  offset="0.6351" style="stop-color:#B7A2AB"/>
				<stop  offset="0.8119" style="stop-color:#D7CBD0"/>
				<stop  offset="0.9902" style="stop-color:#FDFCFC"/>
				<stop  offset="1" style="stop-color:#FFFFFF"/>
			</linearGradient>
			<path class="st13" d="M129.1,408.2c-4-9.1-7-18.6-9.3-28.3c-2.2-9.7-3.2-19.7-3.3-29.7l0-3.7c0-1.2,0.1-2.5,0.2-3.7l0.2-3.7
				l0.1-1.9l0.2-1.9c0.3-2.5,0.5-5,0.9-7.4l1.3-7.4c2-9.8,4.9-19.4,8.7-28.6l1.5-3.4c0.5-1.1,1-2.3,1.6-3.4l3.4-6.7l3.7-6.5
				c0.6-1.1,1.3-2.1,2-3.2c0.7-1,1.3-2.1,2-3.1c5.7-8.2,12-16,19.2-23c7.2-6.9,15-13.2,23.4-18.6c8.4-5.3,17.3-9.8,26.6-13.3
				c-9,4.1-17.7,8.9-25.8,14.5c-2,1.4-4,2.9-6,4.3c-1.9,1.5-3.9,3-5.7,4.6l-2.8,2.4l-2.7,2.5c-1.8,1.6-3.5,3.4-5.3,5.1
				c-13.7,14.1-24.8,30.7-32.2,48.8c-3.8,9-6.7,18.5-8.7,28c-2.1,9.6-3,19.4-3.2,29.2C118.6,369.9,122.3,389.6,129.1,408.2z"/>
		</g>
		<g>
			<linearGradient id="SVGID_14_" gradientUnits="userSpaceOnUse" x1="209.7007" y1="467.5074" x2="397.6821" y2="467.5074">
				<stop  offset="0" style="stop-color:#7F5A69"/>
				<stop  offset="0.1395" style="stop-color:#835F6D"/>
				<stop  offset="0.2969" style="stop-color:#8D6C7A"/>
				<stop  offset="0.463" style="stop-color:#9F838E"/>
				<stop  offset="0.6351" style="stop-color:#B7A2AB"/>
				<stop  offset="0.8119" style="stop-color:#D7CBD0"/>
				<stop  offset="0.9902" style="stop-color:#FDFCFC"/>
				<stop  offset="1" style="stop-color:#FFFFFF"/>
			</linearGradient>
			<path class="st14" d="M396.4,432c-9.1,15.2-20.9,28.8-35,39.7c-7,5.5-14.5,10.3-22.4,14.5c-7.9,4.1-16.2,7.5-24.7,10.2
				c-17,5.3-35,7.5-52.8,6.3c-8.9-0.5-17.7-2-26.3-4.1c-4.3-1.1-8.5-2.4-12.7-3.9c-4.2-1.4-8.3-3.2-12.3-5
				c16.5,6.3,33.9,9.9,51.4,10.6c8.8,0.3,17.5,0,26.2-1.2c8.7-1.1,17.2-3,25.6-5.6c16.7-5.2,32.5-13.3,46.6-23.7
				c7-5.2,13.6-11,19.7-17.4C385.9,446.1,391.4,439.2,396.4,432z"/>
		</g>
		<g>
			<linearGradient id="SVGID_15_" gradientUnits="userSpaceOnUse" x1="238.1419" y1="245.5838" x2="410.2726" y2="245.5838">
				<stop  offset="0" style="stop-color:#7F5A69"/>
				<stop  offset="0.1395" style="stop-color:#835F6D"/>
				<stop  offset="0.2969" style="stop-color:#8D6C7A"/>
				<stop  offset="0.463" style="stop-color:#9F838E"/>
				<stop  offset="0.6351" style="stop-color:#B7A2AB"/>
				<stop  offset="0.8119" style="stop-color:#D7CBD0"/>
				<stop  offset="0.9902" style="stop-color:#FDFCFC"/>
				<stop  offset="1" style="stop-color:#FFFFFF"/>
			</linearGradient>
			<path class="st15" d="M238.4,202.3c8.5-2.1,17.2-3.2,25.9-3.7c8.8-0.4,17.6-0.1,26.3,1.1c8.7,1.1,17.3,3.1,25.7,5.8
				c8.4,2.7,16.5,6.1,24.3,10.2c7.8,4.1,15.2,8.9,22.1,14.4c6.9,5.5,13.4,11.5,19.2,18.1c5.8,6.6,11.1,13.7,15.6,21.2
				c4.5,7.5,8.4,15.4,11.4,23.6c-7.2-15.9-16.9-30.5-28.7-43.2c-5.9-6.3-12.3-12.2-19.2-17.4c-6.9-5.3-14.1-9.9-21.8-14
				c-15.2-8.1-31.8-13.6-48.9-16.3C273.2,199.2,255.6,199.3,238.4,202.3z"/>
		</g>
	</g>
	<g>
		<g>
			<path class="st0" d="M181.3,276.9c4.6-5.6,9.8-10.7,15.5-15.3c5.7-4.6,11.9-8.5,18.4-11.8c6.5-3.3,13.4-5.9,20.5-7.8
				c7.1-1.9,14.4-3,21.7-3.5l2.7-0.1c0.9,0,1.8-0.1,2.7-0.1l5.5,0.1l5.5,0.4c1.8,0.1,3.6,0.4,5.5,0.6c7.2,1.1,14.4,2.8,21.3,5.3
				c6.9,2.5,13.5,5.7,19.7,9.5c6.1,3.9,12,8.3,17.2,13.4c-11.2-9.2-24-16.2-37.6-20.7c-6.8-2.2-13.8-3.8-20.9-4.7
				c-1.8-0.2-3.5-0.4-5.3-0.6l-5.3-0.3l-5.4,0c-1.8,0-3.6,0.2-5.3,0.2c-7.1,0.4-14.2,1.5-21.1,3.2c-6.9,1.7-13.7,4.2-20.2,7.2
				C203.2,257.9,191.4,266.5,181.3,276.9z"/>
		</g>
		<g>
			<path class="st0" d="M251.2,460c-12.9-0.9-25.7-4.2-37.4-10c-5.9-2.8-11.5-6.2-16.8-10.1c-5.3-3.9-10.2-8.2-14.7-13
				c-8.9-9.5-16.2-20.7-21-32.8c-2.5-6-4.3-12.3-5.6-18.7c-0.6-3.2-1.1-6.4-1.4-9.6c-0.4-3.2-0.5-6.5-0.6-9.7
				c1.3,12.8,4.6,25.4,9.8,37c2.6,5.8,5.6,11.4,9.2,16.7c3.5,5.3,7.5,10.3,11.9,14.9c8.7,9.3,19,17,30.3,23c5.6,3,11.5,5.5,17.6,7.5
				C238.5,457.4,244.8,458.9,251.2,460z"/>
		</g>
		<g>
			<path class="st0" d="M351.5,282.8c4.2,4.8,7.7,10.2,10.9,15.7c3.1,5.6,5.8,11.5,7.8,17.6c2.1,6.1,3.6,12.4,4.5,18.8
				c0.9,6.4,1.3,12.8,1.1,19.3c-0.2,6.4-1,12.9-2.4,19.2c-1.4,6.3-3.3,12.5-5.8,18.4c-2.5,5.9-5.5,11.6-9,17
				c-3.6,5.3-7.5,10.4-12,14.9c8-9.9,14.4-21,18.9-32.8c2.2-5.9,4-12,5.2-18.1c1.2-6.2,2-12.4,2.2-18.7c0.5-12.6-1.2-25.2-4.8-37.2
				C364.3,304.7,358.8,293.2,351.5,282.8z"/>
		</g>
	</g>
	<g>
		<g>
			<linearGradient id="SVGID_16_" gradientUnits="userSpaceOnUse" x1="183.9901" y1="341.3026" x2="226.7925" y2="341.3026">
				<stop  offset="0" style="stop-color:#7F5A69"/>
				<stop  offset="0.1395" style="stop-color:#835F6D"/>
				<stop  offset="0.2969" style="stop-color:#8D6C7A"/>
				<stop  offset="0.463" style="stop-color:#9F838E"/>
				<stop  offset="0.6351" style="stop-color:#B7A2AB"/>
				<stop  offset="0.8119" style="stop-color:#D7CBD0"/>
				<stop  offset="0.9902" style="stop-color:#FDFCFC"/>
				<stop  offset="1" style="stop-color:#FFFFFF"/>
			</linearGradient>
			<path class="st16" d="M195.9,395.9c-5.7-8.8-9.5-19-11-29.5c-0.8-5.3-1-10.6-0.7-15.9c0.4-5.3,1.3-10.6,2.7-15.8
				c0.4-1.3,0.7-2.6,1.2-3.8l1.3-3.8l1.6-3.7c0.5-1.2,1.1-2.4,1.7-3.6c2.5-4.7,5.3-9.3,8.7-13.4c3.4-4.1,7.1-7.9,11.3-11.2
				c4.1-3.3,8.6-6.2,13.3-8.5c-4.4,2.9-8.5,6.1-12.4,9.6c-3.8,3.5-7.3,7.4-10.4,11.6c-3.1,4.2-5.8,8.6-8,13.2
				c-0.5,1.2-1.1,2.3-1.6,3.5l-1.5,3.6l-1.3,3.6c-0.4,1.2-0.7,2.5-1.1,3.7c-2.8,9.9-3.7,20.4-2.6,30.6
				C188.3,376.4,191.4,386.5,195.9,395.9z"/>
		</g>
		<g>
			<linearGradient id="SVGID_17_" gradientUnits="userSpaceOnUse" x1="243.576" y1="414.1559" x2="339.3425" y2="414.1559">
				<stop  offset="0" style="stop-color:#7F5A69"/>
				<stop  offset="0.1395" style="stop-color:#835F6D"/>
				<stop  offset="0.2969" style="stop-color:#8D6C7A"/>
				<stop  offset="0.463" style="stop-color:#9F838E"/>
				<stop  offset="0.6351" style="stop-color:#B7A2AB"/>
				<stop  offset="0.8119" style="stop-color:#D7CBD0"/>
				<stop  offset="0.9902" style="stop-color:#FDFCFC"/>
				<stop  offset="1" style="stop-color:#FFFFFF"/>
			</linearGradient>
			<path class="st17" d="M338,390.8c-3.5,8.7-8.7,16.8-15.4,23.6c-3.3,3.4-7,6.5-10.8,9.2c-3.9,2.7-8.1,5.1-12.4,7.1
				c-8.7,3.9-18.1,6.3-27.6,6.7c-9.5,0.5-19-0.8-27.9-3.9c9.2,1.9,18.5,2.5,27.7,1.6c4.6-0.5,9.1-1.2,13.6-2.5
				c4.4-1.2,8.8-2.7,12.9-4.6c8.4-3.8,16.1-9,22.8-15.3C327.7,406.4,333.4,398.9,338,390.8z"/>
		</g>
		<g>
			<linearGradient id="SVGID_18_" gradientUnits="userSpaceOnUse" x1="239.2626" y1="295.9402" x2="336.6305" y2="295.9402">
				<stop  offset="0" style="stop-color:#7F5A69"/>
				<stop  offset="0.1395" style="stop-color:#835F6D"/>
				<stop  offset="0.2969" style="stop-color:#8D6C7A"/>
				<stop  offset="0.463" style="stop-color:#9F838E"/>
				<stop  offset="0.6351" style="stop-color:#B7A2AB"/>
				<stop  offset="0.8119" style="stop-color:#D7CBD0"/>
				<stop  offset="0.9902" style="stop-color:#FDFCFC"/>
				<stop  offset="1" style="stop-color:#FFFFFF"/>
			</linearGradient>
			<path class="st18" d="M239.7,280.5c8.5-3.6,17.9-5.4,27.3-5.4c4.7,0,9.4,0.4,14,1.2c4.6,0.8,9.2,2.1,13.6,3.8
				c4.4,1.7,8.6,3.7,12.7,6.2c4,2.5,7.8,5.2,11.3,8.4c7,6.2,12.8,13.8,16.8,22.2c-5.1-7.7-11.2-14.6-18.3-20.4
				c-3.5-2.8-7.3-5.5-11.2-7.7c-3.9-2.3-8-4.2-12.3-5.8c-4.2-1.6-8.6-2.9-13-3.8c-4.4-0.9-9-1.4-13.5-1.7
				C257.9,277,248.7,278.1,239.7,280.5z"/>
		</g>
	</g>
	<g>
		<g>
			<path class="st0" d="M225.1,299.2c7.3-5.5,15.9-9.6,25-11.5c4.5-1,9.2-1.5,13.8-1.6c4.7,0,9.3,0.5,13.9,1.3
				c1.1,0.3,2.3,0.5,3.4,0.8l3.4,0.9l3.3,1.1c1.1,0.4,2.2,0.8,3.3,1.3c4.3,1.9,8.4,4.1,12.2,6.8c3.8,2.7,7.3,5.7,10.4,9.1
				c3.1,3.4,5.9,7.1,8.1,11.1c-2.8-3.6-5.9-7-9.2-10.1c-3.3-3.1-6.9-5.8-10.7-8.2c-3.8-2.4-7.8-4.5-12-6.1c-1.1-0.4-2.1-0.8-3.1-1.2
				l-3.2-1l-3.2-0.9c-1.1-0.3-2.2-0.5-3.3-0.7c-8.8-1.8-17.9-1.9-26.7-0.4C241.6,291.5,233.1,294.8,225.1,299.2z"/>
		</g>
		<g>
			<path class="st0" d="M238.4,422.3c-7.8-2.4-15.2-6.4-21.5-11.8c-3.2-2.6-6.1-5.6-8.7-8.8c-2.6-3.2-4.9-6.7-7-10.3
				c-4-7.3-6.6-15.4-7.5-23.6c-1-8.2-0.4-16.6,1.8-24.5c-1,8.1-0.9,16.2,0.5,24.1c0.7,3.9,1.7,7.8,3,11.6c1.3,3.8,2.9,7.4,4.8,10.9
				c3.8,7,8.8,13.4,14.6,18.8C224.2,414.3,231,418.7,238.4,422.3z"/>
		</g>
		<g>
			<path class="st0" d="M328.1,330.2c3.7,7.2,5.9,15.2,6.5,23.3c0.4,4.1,0.2,8.2-0.2,12.3c-0.4,4.1-1.3,8.1-2.4,12.1
				c-1.2,3.9-2.7,7.8-4.6,11.4c-1.9,3.6-4.1,7.1-6.6,10.3c-5,6.5-11.3,11.9-18.3,15.9c6.3-5,11.9-10.7,16.5-17.2
				c2.2-3.3,4.3-6.7,6-10.2c1.7-3.5,3.2-7.2,4.3-11c1.2-3.8,2-7.6,2.5-11.5c0.6-3.9,0.7-7.9,0.6-11.8
				C332.1,345.7,330.6,337.8,328.1,330.2z"/>
		</g>
	</g>
	<path class="st19" d="M307.9,385"/>
	<g>
		<g>
			<path class="st0" d="M262.1,314.1c-2.1,0.7-4.2,1.3-6.2,1.9c-2,0.6-4,1.2-6,1.9c-2,0.7-3.9,1.4-5.9,2.1c-2,0.7-3.9,1.6-6,2.3
				c1.4-1.8,3.1-3.2,5-4.4c1.9-1.2,3.9-2.2,6-2.9c2.1-0.7,4.3-1.2,6.5-1.4C257.7,313.5,259.9,313.5,262.1,314.1z"/>
		</g>
		<g>
			<path class="st0" d="M307.1,346c-1.2-1.9-2.3-3.7-3.4-5.6c-1.1-1.8-2.2-3.6-3.4-5.3c-1.2-1.7-2.3-3.5-3.6-5.2
				c-1.2-1.7-2.5-3.4-3.8-5.3c2.1,0.9,3.9,2.2,5.5,3.8c1.6,1.5,3.1,3.2,4.3,5.1c1.2,1.9,2.2,3.9,3,6
				C306.6,341.6,307.1,343.8,307.1,346z"/>
		</g>
		<g>
			<path class="st0" d="M275.3,402.7c1.2-0.9,2.3-1.6,3.5-2.3c1.2-0.7,2.3-1.2,3.5-1.8c1.2-0.6,2.4-1.1,3.6-1.5
				c1.3-0.5,2.5-0.9,4-1.2c-0.7,1.3-1.7,2.3-2.8,3.2c-1.1,0.9-2.3,1.6-3.6,2.2c-1.3,0.6-2.6,1-4,1.3
				C278.2,402.9,276.8,403,275.3,402.7z"/>
		</g>
		<g>
			<path class="st0" d="M230.4,389.1c1.4,0.6,2.5,1.3,3.7,2.1c1.1,0.7,2.2,1.5,3.2,2.3c1,0.8,2.1,1.7,3.1,2.6c1,0.9,2,1.9,2.9,3
				c-1.5-0.1-2.9-0.5-4.2-1.1c-1.3-0.6-2.5-1.3-3.6-2.2c-1.1-0.9-2.1-1.9-3-3C231.6,391.8,230.9,390.5,230.4,389.1z"/>
		</g>
		<g>
			<path class="st0" d="M219.6,351.5c0.3,2.1,0.4,4.1,0.6,6.1c0.2,2,0.3,3.9,0.5,5.9c0.2,1.9,0.4,3.9,0.7,5.8c0.2,2,0.5,3.9,0.7,6.1
				c-1.3-1.7-2.3-3.5-3-5.5c-0.7-2-1.2-4-1.4-6.1c-0.2-2.1-0.2-4.2,0.1-6.2C218.1,355.5,218.7,353.4,219.6,351.5z"/>
		</g>
	</g>
	<g>
		<g>
			<path class="st0" d="M258.6,334.6c-1,0.9-2.1,1.6-3.1,2.3c-1,0.7-2,1.3-3,1.9c-1,0.6-2,1.2-3.1,1.8c-1.1,0.6-2.2,1.1-3.5,1.6
				c0.4-1.3,1.2-2.5,2-3.5c0.9-1,1.9-1.8,3.1-2.5c1.1-0.7,2.4-1.2,3.7-1.5C255.9,334.4,257.2,334.3,258.6,334.6z"/>
		</g>
		<g>
			<path class="st0" d="M286.3,346.3c-1.1-0.8-1.9-1.6-2.7-2.3c-0.8-0.8-1.6-1.6-2.3-2.3c-0.8-0.8-1.5-1.6-2.3-2.4
				c-0.7-0.9-1.5-1.7-2.2-2.8c1.3,0,2.5,0.4,3.7,0.9c1.1,0.6,2.1,1.3,3,2.2c0.9,0.9,1.6,1.9,2.1,3.1
				C286,343.7,286.3,344.9,286.3,346.3z"/>
		</g>
		<g>
			<path class="st0" d="M273,381.6c0.4-0.9,0.9-1.6,1.5-2.2c0.5-0.6,1.1-1.1,1.7-1.6c0.6-0.5,1.3-0.8,2-1.2c0.7-0.3,1.5-0.6,2.5-0.8
				c-0.1,1-0.5,1.8-1,2.5c-0.5,0.7-1.1,1.3-1.7,1.8c-0.7,0.5-1.4,0.9-2.3,1.1C274.9,381.7,274,381.8,273,381.6z"/>
		</g>
		<g>
			<path class="st0" d="M246.9,380c1-0.1,1.7,0.1,2.5,0.2c0.7,0.2,1.4,0.4,2,0.7c0.6,0.3,1.2,0.7,1.8,1.1c0.6,0.5,1.2,1,1.7,1.8
				c-0.9,0.4-1.7,0.5-2.5,0.5c-0.8-0.1-1.6-0.3-2.3-0.6c-0.7-0.3-1.4-0.8-1.9-1.4C247.6,381.6,247.1,380.9,246.9,380z"/>
		</g>
		<g>
			<path class="st0" d="M237.9,360.8c0.6,1.1,1,2.2,1.3,3.2c0.3,1,0.6,2,0.9,3.1c0.3,1,0.5,2,0.7,3.1c0.2,1.1,0.4,2.2,0.4,3.4
				c-1.1-0.6-1.9-1.5-2.6-2.5c-0.6-1-1.1-2.1-1.4-3.3c-0.3-1.1-0.4-2.3-0.3-3.5C237,363,237.2,361.9,237.9,360.8z"/>
		</g>
	</g>
	<g>
		<g>
			<path class="st0" d="M274.5,292.5c-3.1,0.1-6.2,0.2-9.2,0.3c-3,0.2-6,0.4-9,0.8c-3,0.4-5.9,0.9-8.9,1.4c-3,0.6-5.9,1.3-9,1.9
				c2.6-1.8,5.4-3.2,8.4-4.2c3-1.1,6-1.8,9.2-2.2c3.1-0.4,6.3-0.5,9.4-0.2C268.4,290.8,271.5,291.4,274.5,292.5z"/>
		</g>
		<g>
			<path class="st0" d="M328.4,350.5c-0.9-3-1.7-6-2.6-8.9c-0.9-2.9-1.9-5.8-3.1-8.6c-1.1-2.8-2.4-5.6-3.7-8.4
				c-1.3-2.8-2.8-5.5-4.2-8.3c2.4,2.1,4.5,4.5,6.2,7.1c1.8,2.6,3.3,5.5,4.4,8.4c1.2,3,2.1,6,2.6,9.2
				C328.6,344.1,328.8,347.3,328.4,350.5z"/>
		</g>
		<g>
			<path class="st0" d="M267.3,420.8c1.9-0.7,3.8-1.2,5.6-1.7c1.9-0.5,3.7-0.9,5.6-1.4c1.8-0.4,3.7-0.9,5.6-1.3
				c1.9-0.4,3.8-0.8,5.8-1c-1.5,1.3-3.3,2.4-5.1,3.2c-1.8,0.8-3.7,1.5-5.6,1.9c-1.9,0.5-3.9,0.7-5.9,0.8
				C271.3,421.5,269.3,421.3,267.3,420.8z"/>
		</g>
		<g>
			<path class="st0" d="M208.3,388.7c1.5,1.4,2.8,2.8,4.1,4.3c1.3,1.4,2.5,2.9,3.8,4.3c1.2,1.5,2.5,2.9,3.7,4.4
				c1.2,1.5,2.4,3,3.6,4.7c-1.9-0.7-3.6-1.8-5.2-3.1c-1.6-1.2-3-2.6-4.3-4.2c-1.3-1.5-2.5-3.2-3.4-4.9
				C209.5,392.5,208.7,390.7,208.3,388.7z"/>
		</g>
		<g>
			<path class="st0" d="M204,332.8c-0.5,2.9-1,5.7-1.5,8.6c-0.5,2.8-0.8,5.6-1.1,8.4c-0.3,2.8-0.5,5.6-0.6,8.5
				c-0.2,2.9-0.2,5.7-0.3,8.7c-1.1-2.8-1.7-5.7-2-8.6c-0.3-2.9-0.3-5.9,0-8.9c0.3-2.9,0.9-5.9,1.8-8.7
				C201.2,338,202.3,335.3,204,332.8z"/>
		</g>
	</g>
	<g>
		<g>
			<path class="st0" d="M282.6,386.9c1.9-2,3.7-4,5.3-6.1c1.6-2.1,3-4.3,4.2-6.6c1.2-2.3,2.3-4.7,3.1-7.2c0.4-1.2,0.8-2.5,1.2-3.8
				c0.4-1.3,0.6-2.6,1-4c0.3,1.4,0.5,2.8,0.5,4.2c0,1.4-0.1,2.8-0.3,4.2c-0.5,2.8-1.4,5.5-2.7,8c-1.3,2.5-3.1,4.8-5.1,6.7
				C287.6,384.3,285.2,385.9,282.6,386.9z"/>
		</g>
		<g>
			<path class="st0" d="M247.6,388.3c1.5,0.2,2.9,0.5,4.3,0.8c1.4,0.3,2.7,0.6,4,1c1.3,0.3,2.6,0.7,4,1.1c1.3,0.4,2.7,0.8,4.1,1.4
				c-1.4,0.6-2.9,0.9-4.4,0.9c-1.5,0-3-0.2-4.4-0.5c-1.4-0.4-2.8-1-4.1-1.7C249.7,390.5,248.5,389.5,247.6,388.3z"/>
		</g>
		<g>
			<path class="st0" d="M230.7,359.3c0.6,0.8,1,1.6,1.3,2.4c0.3,0.8,0.5,1.5,0.6,2.3c0.1,0.8,0.2,1.6,0.1,2.4
				c-0.1,0.8-0.2,1.7-0.5,2.6c-0.8-0.6-1.4-1.3-1.8-2.1c-0.4-0.8-0.7-1.6-0.8-2.5c-0.1-0.8-0.1-1.7,0-2.6
				C229.8,360.9,230.1,360.1,230.7,359.3z"/>
		</g>
		<g>
			<path class="st0" d="M285,333.4c-3.5-2-7-3.6-10.7-4.6c-1.8-0.5-3.7-0.9-5.6-1.1c-1.9-0.2-3.8-0.3-5.7-0.3
				c-3.8,0.1-7.5,0.8-11.1,2c-3.6,1.2-7.1,3-10.4,5.2c2.5-3.1,5.8-5.6,9.5-7.4c3.7-1.7,7.8-2.7,11.9-2.8c2.1,0,4.1,0.1,6.2,0.4
				c2,0.4,4,0.9,5.9,1.7C278.9,328.1,282.4,330.4,285,333.4z"/>
		</g>
	</g>
	<g>
		<g>
			<path class="st0" d="M350.1,390.8c2.5-7,4.4-14.2,5.5-21.5c0.5-3.6,1-7.3,1.1-11c0.2-3.7,0.2-7.3-0.1-11
				c-0.4-7.3-1.8-14.6-3.8-21.6c-1.1-3.5-2.3-7-3.7-10.4c-1.4-3.4-3.2-6.7-4.8-10.1c2.1,3,4.4,6.1,6.1,9.4c1.8,3.3,3.3,6.8,4.6,10.3
				c1.3,3.5,2.3,7.2,3.1,10.9c0.8,3.7,1.2,7.5,1.5,11.2c0.2,3.8,0.2,7.6-0.1,11.3c-0.3,3.8-0.8,7.5-1.6,11.2
				C356.3,377.1,353.7,384.3,350.1,390.8z"/>
		</g>
		<g>
			<path class="st0" d="M269.5,447.2c3.9-0.9,7.8-1.8,11.7-2.8c1.9-0.5,3.8-1,5.7-1.6c1.9-0.6,3.8-1.1,5.6-1.8
				c3.7-1.3,7.4-2.7,11.1-4.2c3.7-1.5,7.3-3.2,11-4.8c-3,2.7-6.4,5-10,6.9c-3.6,2-7.3,3.6-11.1,4.9c-1.9,0.6-3.9,1.2-5.9,1.7
				c-2,0.5-4,0.9-6,1.2C277.6,447.3,273.5,447.5,269.5,447.2z"/>
		</g>
		<g>
			<path class="st0" d="M187,407c1.7,1.5,3.2,3.1,4.8,4.7c1.5,1.6,3,3.2,4.4,4.9c1.4,1.6,2.9,3.3,4.3,5c1.4,1.7,2.8,3.4,4.1,5.3
				c-2.1-0.9-4-2.2-5.8-3.6c-1.8-1.4-3.4-3-4.9-4.7c-1.5-1.7-2.9-3.5-4-5.4C188.7,411.2,187.7,409.2,187,407z"/>
		</g>
		<g>
			<path class="st0" d="M277.2,265.3c-11-0.4-22,0.9-32.5,3.9c-10.5,3-20.4,7.7-29.4,13.9c-4.5,3-8.7,6.5-12.7,10.2
				c-4,3.7-7.6,7.8-10.9,12.2c-6.6,8.7-11.7,18.5-15.3,28.9c2.4-10.8,7.1-21.1,13.4-30.3c3.2-4.6,6.8-8.9,10.8-12.8
				c4-3.9,8.3-7.5,12.9-10.7c4.6-3.1,9.5-5.9,14.6-8.2c5.1-2.3,10.4-4.1,15.8-5.4C254.9,264.3,266.2,263.7,277.2,265.3z"/>
		</g>
	</g>
	<g>
		<g>
			<linearGradient id="SVGID_19_" gradientUnits="userSpaceOnUse" x1="190.6321" y1="236.0806" x2="382.459" y2="236.0806">
				<stop  offset="0" style="stop-color:#7F5A69"/>
				<stop  offset="0.1395" style="stop-color:#835F6D"/>
				<stop  offset="0.2969" style="stop-color:#8D6C7A"/>
				<stop  offset="0.463" style="stop-color:#9F838E"/>
				<stop  offset="0.6351" style="stop-color:#B7A2AB"/>
				<stop  offset="0.8119" style="stop-color:#D7CBD0"/>
				<stop  offset="0.9902" style="stop-color:#FDFCFC"/>
				<stop  offset="1" style="stop-color:#FFFFFF"/>
			</linearGradient>
			<path class="st20" d="M191.5,229.2c7.3-5.2,15.2-9.6,23.4-13.3c8.2-3.7,16.9-6.3,25.7-8.2c8.8-1.9,17.9-2.8,26.9-2.9
				c9,0,18.1,0.9,27,2.7l3.3,0.7c1.1,0.2,2.2,0.5,3.3,0.8l6.5,1.8l6.4,2.2c1.1,0.3,2.1,0.8,3.2,1.2c1.1,0.4,2.1,0.8,3.1,1.3
				c8.3,3.6,16.3,7.8,23.8,13c7.4,5.1,14.4,11,20.6,17.5c6.2,6.6,11.8,13.6,16.5,21.3c-5.3-7.2-11.1-14.1-17.5-20.2
				c-6.4-6.2-13.4-11.7-20.8-16.6c-14.9-9.6-31.6-16.6-49-19.9c-8.7-1.8-17.5-2.7-26.4-2.8c-8.9-0.1-17.7,0.8-26.5,2.3
				C223.6,213.2,206.8,219.9,191.5,229.2z"/>
		</g>
		<g>
			<linearGradient id="SVGID_20_" gradientUnits="userSpaceOnUse" x1="129.0209" y1="393.0609" x2="218.0549" y2="393.0609">
				<stop  offset="0" style="stop-color:#7F5A69"/>
				<stop  offset="0.1395" style="stop-color:#835F6D"/>
				<stop  offset="0.2969" style="stop-color:#8D6C7A"/>
				<stop  offset="0.463" style="stop-color:#9F838E"/>
				<stop  offset="0.6351" style="stop-color:#B7A2AB"/>
				<stop  offset="0.8119" style="stop-color:#D7CBD0"/>
				<stop  offset="0.9902" style="stop-color:#FDFCFC"/>
				<stop  offset="1" style="stop-color:#FFFFFF"/>
			</linearGradient>
			<path class="st21" d="M217.5,470.5c-15.1-5.3-29.3-13.4-41.5-23.9c-6.1-5.2-11.7-11.1-16.8-17.3c-5.1-6.3-9.6-13-13.4-20.1
				c-7.7-14.2-12.8-29.8-14.9-45.8c-1.1-8-1.4-16.1-1-24.1c0.2-4,0.6-8,1.2-12c0.5-4,1.4-7.9,2.3-11.8c-2.6,15.8-2.7,31.8-0.2,47.5
				c1.3,7.8,3.1,15.5,5.7,23c2.5,7.5,5.7,14.7,9.5,21.7c7.5,13.9,17.5,26.5,29.2,37.1c5.9,5.3,12.2,10.2,18.9,14.4
				C203.1,463.6,210.2,467.3,217.5,470.5z"/>
		</g>
		<g>
			<linearGradient id="SVGID_21_" gradientUnits="userSpaceOnUse" x1="342.3446" y1="373.4111" x2="405.6191" y2="373.4111">
				<stop  offset="0" style="stop-color:#7F5A69"/>
				<stop  offset="0.1395" style="stop-color:#835F6D"/>
				<stop  offset="0.2969" style="stop-color:#8D6C7A"/>
				<stop  offset="0.463" style="stop-color:#9F838E"/>
				<stop  offset="0.6351" style="stop-color:#B7A2AB"/>
				<stop  offset="0.8119" style="stop-color:#D7CBD0"/>
				<stop  offset="0.9902" style="stop-color:#FDFCFC"/>
				<stop  offset="1" style="stop-color:#FFFFFF"/>
			</linearGradient>
			<path class="st22" d="M393.4,289.8c3.4,7.1,6,14.7,8,22.3c1.9,7.7,3.2,15.6,3.7,23.5c0.6,7.9,0.3,15.9-0.6,23.8
				c-0.9,7.9-2.5,15.7-4.8,23.4c-2.3,7.6-5.3,15.1-8.8,22.2c-3.6,7.1-7.8,13.9-12.7,20.2c-4.8,6.3-10.2,12.2-16.1,17.5
				c-5.9,5.3-12.2,10.1-19,14.2c12.8-9.2,24-20.4,33.2-33.1c4.5-6.4,8.6-13.1,12-20.1c3.4-7,6.3-14.3,8.5-21.8
				c4.5-14.9,6.5-30.6,5.9-46.2C402.1,320.1,399,304.6,393.4,289.8z"/>
		</g>
	</g>
	<g>
		<g>
			<linearGradient id="SVGID_22_" gradientUnits="userSpaceOnUse" x1="146.4044" y1="267.184" x2="300.7037" y2="267.184">
				<stop  offset="0" style="stop-color:#7F5A69"/>
				<stop  offset="0.1395" style="stop-color:#835F6D"/>
				<stop  offset="0.2969" style="stop-color:#8D6C7A"/>
				<stop  offset="0.463" style="stop-color:#9F838E"/>
				<stop  offset="0.6351" style="stop-color:#B7A2AB"/>
				<stop  offset="0.8119" style="stop-color:#D7CBD0"/>
				<stop  offset="0.9902" style="stop-color:#FDFCFC"/>
				<stop  offset="1" style="stop-color:#FFFFFF"/>
			</linearGradient>
			<path class="st23" d="M147.8,311.3c2-7.8,5-15.3,8.5-22.5c3.6-7.2,8-14,13-20.4c5-6.3,10.7-12.2,16.9-17.4
				c6.2-5.2,13-9.7,20.1-13.6l2.7-1.4c0.9-0.5,1.8-0.9,2.7-1.3l5.5-2.5l5.7-2.2c0.9-0.4,1.9-0.7,2.9-1c1-0.3,1.9-0.6,2.9-0.9
				c7.8-2.3,15.7-3.9,23.8-4.6c8.1-0.7,16.2-0.6,24.2,0.3c8,1,15.9,2.7,23.5,5.3c-15.5-4-31.7-5.2-47.4-3.4
				c-15.7,1.9-31.2,6.6-45,14.2c-7,3.7-13.6,8.2-19.7,13.1c-6.2,5-11.8,10.6-16.9,16.7C160.9,282,153.1,296.2,147.8,311.3z"/>
		</g>
		<g>
			<linearGradient id="SVGID_23_" gradientUnits="userSpaceOnUse" x1="155.7789" y1="437.008" x2="303.9724" y2="437.008">
				<stop  offset="0" style="stop-color:#7F5A69"/>
				<stop  offset="0.1395" style="stop-color:#835F6D"/>
				<stop  offset="0.2969" style="stop-color:#8D6C7A"/>
				<stop  offset="0.463" style="stop-color:#9F838E"/>
				<stop  offset="0.6351" style="stop-color:#B7A2AB"/>
				<stop  offset="0.8119" style="stop-color:#D7CBD0"/>
				<stop  offset="0.9902" style="stop-color:#FDFCFC"/>
				<stop  offset="1" style="stop-color:#FFFFFF"/>
			</linearGradient>
			<path class="st24" d="M303.5,462.7c-13.4,5-27.8,7.6-42.2,7.3c-7.2-0.1-14.4-0.9-21.5-2.3c-7.1-1.4-14-3.5-20.8-6.2
				c-13.4-5.4-25.9-13.2-36.4-23c-5.3-4.9-10.1-10.3-14.4-16.1c-2.1-2.9-4.1-5.9-6-9c-1.9-3-3.5-6.2-5.1-9.4
				c7.3,12.3,16.4,23.4,27.1,32.7c5.4,4.6,11,8.9,17.1,12.5c6,3.7,12.3,6.9,18.9,9.5c13.1,5.3,27.1,8.3,41.2,8.9
				c7.1,0.3,14.2,0.1,21.2-0.8C289.6,466.1,296.6,464.6,303.5,462.7z"/>
		</g>
		<g>
			<linearGradient id="SVGID_24_" gradientUnits="userSpaceOnUse" x1="320.847" y1="309.7309" x2="389.0365" y2="309.7309">
				<stop  offset="0" style="stop-color:#7F5A69"/>
				<stop  offset="0.1395" style="stop-color:#835F6D"/>
				<stop  offset="0.2969" style="stop-color:#8D6C7A"/>
				<stop  offset="0.463" style="stop-color:#9F838E"/>
				<stop  offset="0.6351" style="stop-color:#B7A2AB"/>
				<stop  offset="0.8119" style="stop-color:#D7CBD0"/>
				<stop  offset="0.9902" style="stop-color:#FDFCFC"/>
				<stop  offset="1" style="stop-color:#FFFFFF"/>
			</linearGradient>
			<path class="st25" d="M321.5,237.8c6.4,3,12.5,6.7,18.3,10.8c5.7,4.2,11.1,8.9,16,14c4.9,5.1,9.3,10.8,13.3,16.7
				c3.9,6,7.3,12.3,10.1,18.9c2.8,6.6,5,13.4,6.6,20.4c1.5,7,2.5,14.1,2.8,21.2c0.3,7.1-0.1,14.3-1.1,21.3c-1.1,7-2.7,13.9-5,20.6
				c3.5-13.7,4.8-27.8,3.8-41.8c-0.5-7-1.6-13.9-3.2-20.7c-1.6-6.8-3.8-13.4-6.6-19.8c-5.4-12.8-13-24.8-22.3-35.2
				C344.8,253.8,333.8,244.8,321.5,237.8z"/>
		</g>
	</g>
	<g>
		<g>
			<path class="st0" d="M56.3,432.7c-5.7-13.2-10-27-13.1-41c-3.1-14.1-4.4-28.5-4.5-42.9l0-5.4c0-1.8,0.2-3.6,0.2-5.4l0.3-5.4
				l0.2-2.7l0.3-2.7c0.4-3.6,0.8-7.2,1.3-10.8l1.8-10.7c2.9-14.2,7.1-28,12.6-41.4l2.1-5c0.7-1.7,1.4-3.3,2.3-4.9l4.9-9.7l5.4-9.4
				c0.9-1.6,1.9-3.1,2.8-4.6c1-1.5,1.9-3.1,2.9-4.5l3.1-4.4l1.6-2.2l1.6-2.2l3.3-4.3l3.4-4.2c2.2-2.8,4.7-5.5,7.1-8.2
				c1.2-1.3,2.5-2.6,3.7-3.9c1.3-1.3,2.5-2.6,3.8-3.9c10.3-10.1,21.6-19.2,33.7-27c12.1-7.7,25-14.4,38.4-19.6
				c-26.3,11.6-50.4,27.9-70.4,48.3c-20,20.4-36.2,44.5-47,70.9c-5.5,13.2-9.7,26.8-12.6,40.8c-3,14-4.3,28.2-4.5,42.5
				c-0.2,14.3,0.9,28.6,3.7,42.7C47.3,405.4,51.3,419.2,56.3,432.7z"/>
		</g>
		<g>
			<path class="st0" d="M444,467.3c-6.6,11-14.4,21.3-22.9,30.9l-1.6,1.8l-1.7,1.7l-3.3,3.5c-2.2,2.3-4.6,4.5-6.9,6.7
				c-2.4,2.1-4.7,4.3-7.2,6.4l-3.7,3.1c-0.6,0.5-1.2,1-1.9,1.5l-1.9,1.5c-20.3,15.8-43.6,27.9-68.2,35.6
				c-24.6,7.7-50.6,10.9-76.3,9.3c-1.6-0.1-3.2-0.2-4.8-0.4l-4.8-0.4l-4.8-0.6l-2.4-0.3l-2.4-0.4l-4.8-0.7c-1.6-0.3-3.2-0.6-4.7-0.9
				c-3.2-0.6-6.3-1.3-9.4-2c-1.6-0.4-3.1-0.8-4.7-1.2c-1.5-0.4-3.1-0.8-4.6-1.3c-3.1-1-6.1-1.8-9.2-2.9c-6.1-2-12-4.5-17.9-7
				c11.9,4.6,24.2,8.4,36.7,11c12.5,2.6,25.2,4.4,37.9,4.8c12.7,0.4,25.5,0,38.1-1.7c12.6-1.6,25.1-4.4,37.2-8.2
				c24.3-7.5,47.2-19.3,67.7-34.5l1.9-1.4c0.6-0.5,1.2-1,1.9-1.5l3.7-3c2.5-2,4.8-4.1,7.3-6.2c2.3-2.2,4.7-4.3,7-6.5l3.4-3.4
				l1.7-1.7l1.6-1.8C428.8,487.9,436.8,477.8,444,467.3z"/>
		</g>
		<g>
			<path class="st0" d="M214.9,134.1c12.3-2.9,24.9-4.5,37.6-5.1c12.7-0.5,25.4,0.1,38,1.8c25.2,3.4,49.8,11.4,72.3,23.3
				c11.2,6,22,12.9,32,20.7c10,7.9,19.4,16.5,27.8,26c8.5,9.5,16.1,19.7,22.7,30.5c6.6,10.9,12.3,22.2,16.8,34
				c-5.1-11.6-11.1-22.7-18-33.3c-6.9-10.6-14.6-20.5-23.2-29.7c-17.1-18.4-37.3-34-59.5-45.7c-22.2-11.8-46.4-19.8-71.2-23.6
				c-12.4-1.9-25-2.8-37.6-2.6C239.9,130.6,227.3,131.9,214.9,134.1z"/>
		</g>
	</g>
	<g>
		<g>
			<path class="st0" d="M79,184.9c10.2-11.8,21.7-22.7,34-32.4c12.3-9.7,25.8-17.9,39.9-24.9l5.3-2.6c1.8-0.8,3.6-1.6,5.4-2.3
				l5.4-2.3l2.7-1.1l2.8-1c3.7-1.3,7.4-2.7,11.1-3.9l11.3-3.3c15.2-3.9,30.8-6.4,46.6-7.4c31.4-2,63.2,2.6,92.9,13
				c14.8,5.3,29.1,12,42.6,20.1c13.4,8.2,26,17.6,37.6,28.2c-23.8-20.3-51.3-36.1-80.9-46.1c-14.8-4.9-30-8.5-45.4-10.6
				c-1.9-0.3-3.9-0.4-5.8-0.7c-1.9-0.2-3.9-0.5-5.8-0.6l-11.6-0.7l-11.7-0.1c-1.9-0.1-3.9,0.1-5.8,0.2l-5.8,0.3
				c-15.5,0.9-31,3.3-46,7.1c-15.1,3.8-29.7,9.4-43.8,15.9c-14.1,6.7-27.6,14.6-40,24C101.3,163,89.7,173.5,79,184.9z"/>
		</g>
		<g>
			<path class="st0" d="M230.2,581.2c-13.9-1.3-27.7-4-41.2-7.7l-2.5-0.7L184,572l-5-1.6c-3.3-1.1-6.6-2.4-9.9-3.5
				c-3.2-1.3-6.5-2.6-9.7-4l-4.8-2.2c-0.8-0.4-1.6-0.7-2.4-1.1l-2.4-1.2c-12.6-6.2-24.6-13.6-35.9-21.9
				c-11.3-8.3-21.8-17.7-31.5-27.9c-19.2-20.5-34.8-44.4-45.6-70.3c-0.7-1.6-1.3-3.2-2-4.9l-1.9-4.9l-1.7-5l-0.9-2.5l-0.8-2.5
				l-1.5-5c-0.5-1.7-0.9-3.4-1.4-5.1c-1-3.4-1.7-6.8-2.5-10.2c-0.4-1.7-0.7-3.4-1-5.1c-0.3-1.7-0.7-3.4-1-5.2
				c-0.5-3.5-1.1-6.9-1.5-10.4c-1-6.9-1.4-13.9-1.7-20.9c2.2,27.8,8.8,55.2,20,80.7c5.6,12.7,12.1,25,19.9,36.5
				c7.6,11.6,16.2,22.5,25.8,32.6c19,20.2,41.5,37.1,66.2,49.8l2.3,1.2c0.8,0.4,1.6,0.8,2.3,1.1l4.7,2.2c3.1,1.5,6.4,2.8,9.6,4.2
				c3.2,1.2,6.5,2.5,9.7,3.7l4.9,1.7l2.5,0.8l2.5,0.8C202.7,576.3,216.3,579.2,230.2,581.2z"/>
		</g>
		<g>
			<path class="st0" d="M447.2,197.7c8.7,10.7,16.3,22.3,22.9,34.4c6.5,12.2,12,24.9,16.4,38.1c8.7,26.3,12.6,54.2,11.7,81.9
				c-0.5,13.9-2.2,27.7-5,41.2c-2.9,13.5-6.9,26.9-12.2,39.7c-5.3,12.8-11.6,25.2-19,36.8c-7.5,11.6-15.9,22.6-25.3,32.7
				c8.9-10.5,17-21.7,24-33.5c7.1-11.8,13.2-24.1,18.1-36.9c9.9-25.6,15.5-52.8,16.4-80.1c1-27.4-2.8-54.9-10.9-81.1
				c-4-13.1-9.2-25.9-15.5-38.1C462.6,220.5,455.3,208.8,447.2,197.7z"/>
		</g>
	</g>
	<g>
		<g>
			<path class="st0" d="M241.7,115.8c14.9-1.5,30.1-1.6,45.1-0.2c15,1.3,29.9,4.5,44.3,8.9l5.4,1.6c1.8,0.6,3.5,1.3,5.3,1.9l5.3,2
				l2.6,1l2.6,1.1c3.4,1.6,6.9,3,10.3,4.6l10.1,5.2c13.2,7.3,25.8,15.8,37.4,25.5c23.2,19.3,42.5,43.5,56.3,70.3
				c6.8,13.5,12.5,27.5,16.5,42.1c3.9,14.5,6.6,29.4,7.6,44.4c-3.3-29.9-12.1-59-26.2-85.4c-7.1-13.2-15.3-25.7-24.7-37.3
				c-1.2-1.5-2.4-2.9-3.6-4.3c-1.2-1.4-2.4-2.9-3.7-4.2l-7.6-8.2l-8.1-7.7c-1.3-1.3-2.8-2.5-4.2-3.7l-4.3-3.6
				c-11.4-9.6-23.8-18.1-36.8-25.4c-13-7.3-26.9-13-41.1-17.7c-14.2-4.6-28.9-8-43.7-9.6C271.7,115.2,256.7,114.9,241.7,115.8z"/>
		</g>
		<g>
			<path class="st0" d="M86.2,492c-8.9-10.1-16.7-21-23.7-32.5l-1.3-2.2l-1.2-2.2l-2.4-4.4c-1.6-3-3.1-6-4.6-9
				c-1.4-3.1-2.8-6.1-4.1-9.2l-1.9-4.7c-0.3-0.8-0.6-1.6-1-2.3l-0.9-2.4c-4.7-12.6-8.3-25.7-10.7-38.9c-2.4-13.3-3.6-26.7-3.6-40.2
				c0-27,4.9-53.9,14.5-79.1c0.6-1.6,1.2-3.1,1.9-4.7l1.9-4.7l2.1-4.6l1-2.3l1.1-2.3l2.2-4.5c0.8-1.5,1.6-3,2.4-4.5
				c1.5-3,3.3-5.9,5-8.8c0.8-1.5,1.8-2.8,2.7-4.3c0.9-1.4,1.8-2.9,2.7-4.2c1.9-2.8,3.8-5.6,5.8-8.2c3.9-5.5,8.2-10.6,12.6-15.7
				c-8.3,10.5-16,21.5-22.5,33.2c-1.6,2.9-3.3,5.8-4.7,8.8c-0.8,1.5-1.5,3-2.3,4.5l-2.1,4.5l-1.1,2.3l-1,2.3l-2,4.6l-1.8,4.7
				c-0.6,1.6-1.2,3.1-1.7,4.7c-4.4,12.6-8,25.4-10.2,38.6c-2.3,13.1-3.5,26.4-3.5,39.7c-0.1,26.6,4.6,53.2,13.4,78.4l0.8,2.4
				c0.3,0.8,0.6,1.6,0.9,2.3l1.8,4.7c1.2,3.1,2.6,6.1,3.9,9.2c1.5,3,2.8,6,4.4,9l2.3,4.4l1.2,2.2l1.2,2.2
				C70.3,470.5,77.9,481.6,86.2,492z"/>
		</g>
		<g>
			<path class="st0" d="M490.3,367.2c-1,13.2-3.3,26.3-6.7,39.1c-3.4,12.8-8,25.3-13.6,37.4c-11.2,24.1-26.9,46.1-45.8,64.9
				c-9.5,9.4-19.7,17.9-30.7,25.5c-11,7.5-22.5,14.2-34.7,19.6c-12.1,5.5-24.7,9.9-37.5,13.2c-12.9,3.2-26,5.3-39.2,6.2
				c13.1-1.5,26.2-3.9,38.8-7.6c12.7-3.5,25.1-8.2,37-13.9c23.7-11.3,45.6-26.6,64.2-45.2c18.7-18.5,34.2-40.1,45.8-63.7
				c5.8-11.8,10.6-24.1,14.3-36.8C486.1,393.3,488.7,380.4,490.3,367.2z"/>
		</g>
	</g>
	<g>
		<g>
			<linearGradient id="SVGID_25_" gradientUnits="userSpaceOnUse" x1="77.6191" y1="270.2181" x2="241.542" y2="270.2181">
				<stop  offset="0" style="stop-color:#7F5A69"/>
				<stop  offset="0.1395" style="stop-color:#835F6D"/>
				<stop  offset="0.2969" style="stop-color:#8D6C7A"/>
				<stop  offset="0.463" style="stop-color:#9F838E"/>
				<stop  offset="0.6351" style="stop-color:#B7A2AB"/>
				<stop  offset="0.8119" style="stop-color:#D7CBD0"/>
				<stop  offset="0.9902" style="stop-color:#FDFCFC"/>
				<stop  offset="1" style="stop-color:#FFFFFF"/>
			</linearGradient>
			<path class="st26" d="M81.1,377.3c-2-12.2-2.7-24.7-2.4-37.1c0.4-12.4,2.3-24.8,5.2-36.9l1.1-4.5c0.4-1.5,0.9-3,1.3-4.5l1.4-4.5
				l0.7-2.2l0.8-2.2c1.1-2.9,2.2-5.8,3.3-8.7l3.8-8.5c5.4-11.2,11.9-21.9,19.3-32l2.8-3.7c0.9-1.2,1.9-2.5,2.9-3.6l6.1-7.1l6.5-6.7
				c1.1-1.1,2.2-2.2,3.4-3.3c1.1-1.1,2.3-2.1,3.4-3.2l3.5-3.1l1.8-1.5l1.8-1.5l3.7-2.9l3.8-2.8c2.5-1.9,5.1-3.6,7.7-5.3
				c1.3-0.9,2.6-1.6,4-2.5c1.3-0.8,2.6-1.7,4-2.4c10.8-6.2,22.1-11.5,33.9-15.4c11.8-3.9,23.9-6.7,36.2-8.2
				c-24.4,4.2-48,12.8-69,25.6c-21,12.9-39.6,29.5-54.2,49.3c-7.4,9.8-13.8,20.4-19.2,31.4c-5.4,11-9.6,22.7-12.8,34.5
				c-3.2,11.9-5.3,24.1-6,36.4C79.3,352.6,79.7,365,81.1,377.3z"/>
		</g>
		<g>
			<linearGradient id="SVGID_26_" gradientUnits="userSpaceOnUse" x1="153.4288" y1="514.624" x2="398.7122" y2="514.624">
				<stop  offset="0" style="stop-color:#7F5A69"/>
				<stop  offset="0.1395" style="stop-color:#835F6D"/>
				<stop  offset="0.2969" style="stop-color:#8D6C7A"/>
				<stop  offset="0.463" style="stop-color:#9F838E"/>
				<stop  offset="0.6351" style="stop-color:#B7A2AB"/>
				<stop  offset="0.8119" style="stop-color:#D7CBD0"/>
				<stop  offset="0.9902" style="stop-color:#FDFCFC"/>
				<stop  offset="1" style="stop-color:#FFFFFF"/>
			</linearGradient>
			<path class="st27" d="M397.7,488.2c-7.8,7.8-16.5,14.8-25.6,21.1c-1.1,0.8-2.3,1.6-3.5,2.3l-3.5,2.2c-2.4,1.5-4.8,2.8-7.2,4.2
				c-2.5,1.3-4.9,2.6-7.4,3.8c-2.5,1.2-5,2.5-7.5,3.5c-20.3,9-42.3,14.1-64.5,15.4c-22.2,1.2-44.7-1.6-65.8-8.4
				c-1.3-0.4-2.6-0.9-3.9-1.3l-3.9-1.4l-3.9-1.5c-1.3-0.5-2.6-1-3.9-1.6l-3.8-1.6c-1.3-0.6-2.5-1.2-3.8-1.8c-2.5-1.1-5-2.4-7.4-3.7
				c-1.2-0.6-2.4-1.4-3.6-2c-1.2-0.7-2.4-1.3-3.6-2.1c-2.4-1.5-4.7-2.9-7-4.4c-4.7-3-9.1-6.3-13.4-9.7c9,6.3,18.5,12.1,28.4,16.9
				c9.9,4.8,20.1,8.9,30.6,12c10.5,3,21.3,5.4,32.2,6.6c10.9,1.3,21.9,1.7,32.8,1.1c21.9-1.1,43.5-6.1,63.8-14.5
				c2.6-1,5-2.2,7.5-3.3c2.5-1.1,4.9-2.4,7.4-3.6c2.4-1.3,4.8-2.6,7.2-4c2.3-1.4,4.8-2.8,7-4.3C380.6,502.3,389.4,495.5,397.7,488.2
				z"/>
		</g>
		<g>
			<linearGradient id="SVGID_27_" gradientUnits="userSpaceOnUse" x1="276.7323" y1="242.3699" x2="457.0719" y2="242.3699">
				<stop  offset="0" style="stop-color:#7F5A69"/>
				<stop  offset="0.1395" style="stop-color:#835F6D"/>
				<stop  offset="0.2969" style="stop-color:#8D6C7A"/>
				<stop  offset="0.463" style="stop-color:#9F838E"/>
				<stop  offset="0.6351" style="stop-color:#B7A2AB"/>
				<stop  offset="0.8119" style="stop-color:#D7CBD0"/>
				<stop  offset="0.9902" style="stop-color:#FDFCFC"/>
				<stop  offset="1" style="stop-color:#FFFFFF"/>
			</linearGradient>
			<path class="st28" d="M276.7,161.4c10.9,0.2,21.8,1.5,32.5,3.6c10.7,2.2,21.2,5.4,31.4,9.5c20.4,8.1,39.2,20,55.6,34.7
				c16.3,14.7,30,32.3,40.1,51.8c5,9.7,9.2,19.9,12.5,30.4c3.2,10.5,5.5,21.2,6.7,32c-1.9-10.7-4.5-21.3-8.1-31.6
				c-3.5-10.3-7.9-20.2-13.1-29.7c-10.4-19-24-36.2-40.1-50.7c-16-14.5-34.5-26.3-54.4-34.8c-10-4.3-20.3-7.7-30.9-10.2
				C298.4,163.8,287.6,162.2,276.7,161.4z"/>
		</g>
	</g>
	<g>
		<g>
			<path class="st0" d="M173.9,207.5c9.1-6.4,18.9-11.8,29.1-16.3c10.2-4.5,21-7.7,31.9-10l4.1-0.9c1.4-0.3,2.8-0.4,4.1-0.6l4.2-0.6
				l2.1-0.3l2.1-0.2c2.8-0.2,5.6-0.5,8.4-0.7l8.4-0.2c11.2,0,22.4,1.2,33.4,3.3l4.1,0.9c1.4,0.3,2.7,0.6,4.1,1l8.1,2.2l8,2.7
				c1.3,0.4,2.6,1,3.9,1.5c1.3,0.5,2.6,1,3.9,1.6l3.8,1.7l1.9,0.9l1.9,0.9l3.8,1.8l3.7,2c2.5,1.3,4.9,2.8,7.3,4.2
				c1.2,0.7,2.4,1.5,3.5,2.3c1.2,0.8,2.4,1.5,3.5,2.3c9.2,6.4,17.8,13.5,25.6,21.6c7.7,8.1,14.6,16.9,20.6,26.3
				c-12.9-18.1-28.9-33.9-47.4-45.9c-18.5-12-39.2-20.7-60.9-24.8c-10.8-2.2-21.8-3.3-32.8-3.4c-11-0.1-22,1-32.9,2.9
				c-10.8,2-21.6,4.9-31.8,9.1C193.3,196.6,183.4,201.7,173.9,207.5z"/>
		</g>
		<g>
			<path class="st0" d="M206.2,507c-18.6-6.7-36.2-16.8-51.3-29.9c-7.6-6.5-14.5-13.7-20.8-21.5c-6.3-7.8-11.8-16.1-16.6-24.9
				C108,413.1,101.6,393.8,99,374c-1.4-9.9-1.7-19.9-1.3-29.8c0.3-5,0.7-9.9,1.4-14.8c0.6-4.9,1.6-9.8,2.7-14.6
				c-3.4,19.5-3.6,39.5-0.5,59c1.6,9.7,3.8,19.3,7.1,28.6c3.1,9.3,7.1,18.3,11.8,27c9.4,17.3,21.7,32.9,36.3,46.1
				c7.3,6.6,15.2,12.6,23.5,17.8C188.3,498.5,197.2,503,206.2,507z"/>
		</g>
		<g>
			<path class="st0" d="M424.5,282.7c4.1,8.9,7.3,18.2,9.7,27.7c2.4,9.5,3.9,19.3,4.5,29.1c0.7,9.8,0.3,19.7-0.7,29.5
				c-1.1,9.8-3.1,19.5-5.9,29c-2.8,9.5-6.5,18.7-10.9,27.5c-4.5,8.8-9.7,17.2-15.6,25.1c-5.9,7.9-12.6,15.2-19.8,21.8
				c-7.3,6.6-15.1,12.6-23.4,17.8c16-11.3,30-25.2,41.4-41c5.7-7.9,10.7-16.2,15-24.9c4.3-8.7,7.9-17.8,10.6-27.1
				c5.6-18.6,8-38.1,7.2-57.5C435.6,320.3,431.6,301,424.5,282.7z"/>
		</g>
	</g>
	<g>
		<g>
			<path class="st0" d="M378.8,236c7.4,7.2,14.1,15.2,20,23.7c5.9,8.5,10.8,17.8,14.8,27.4l1.5,3.6c0.5,1.2,0.9,2.5,1.3,3.7l1.3,3.7
				l0.6,1.8l0.5,1.9c0.7,2.5,1.4,5,2.1,7.5l1.7,7.6c1.9,10.3,2.8,20.7,2.8,31.1l-0.1,3.9c0,1.3,0,2.6-0.2,3.9l-0.6,7.8l-1.1,7.8
				c-0.2,1.3-0.4,2.6-0.7,3.9c-0.2,1.3-0.5,2.6-0.7,3.8c-0.6,2.5-1.1,5.1-1.8,7.6l-1,3.8l-1.2,3.7c-0.7,2.5-1.7,4.9-2.5,7.4
				c-0.4,1.2-1,2.4-1.4,3.6c-0.5,1.2-0.9,2.4-1.5,3.6c-4.2,9.5-9.3,18.7-15.3,27.1c-6.1,8.4-12.9,16.3-20.5,23.3
				c7.1-7.5,13.6-15.5,19.3-24.2c1.4-2.2,2.8-4.3,4.1-6.5c1.2-2.2,2.6-4.4,3.7-6.7l1.8-3.4l1.7-3.5c1.1-2.3,2.1-4.7,3.1-7
				c7.7-19,12-39.4,12-59.9c0.1-10.2-0.8-20.5-2.6-30.6c-1.8-10.1-4.7-20-8.4-29.5C404,268.8,392.7,251.2,378.8,236z"/>
		</g>
		<g>
			<path class="st0" d="M110.7,317.8c2.8-18.2,8.9-36.1,18.3-52.1c4.6-8.1,10-15.7,16-22.8c6-7.1,12.7-13.6,19.9-19.6
				c14.4-11.8,30.9-21,48.6-26.9c8.8-3,17.9-5,27-6.4c4.6-0.6,9.2-1.1,13.8-1.3c4.6-0.3,9.2-0.2,13.8,0c-18.4,0.4-36.7,3.7-53.9,9.9
				c-8.6,3.2-17,6.9-24.9,11.5c-8,4.5-15.5,9.7-22.6,15.5c-14.1,11.6-26.3,25.6-35.8,41.2c-4.8,7.8-8.9,16-12.2,24.6
				C115.3,299.9,112.7,308.8,110.7,317.8z"/>
		</g>
		<g>
			<path class="st0" d="M353.7,478.1c-7.4,5.3-15.4,9.9-23.6,13.8c-8.3,3.8-17,7-25.8,9.2c-8.9,2.3-18,3.8-27.1,4.5
				c-9.2,0.7-18.4,0.5-27.5-0.4c-9.1-1-18.2-2.7-27-5.2c-8.8-2.6-17.4-5.8-25.6-9.9c-8.2-4.1-16.1-8.9-23.4-14.4
				c-7.3-5.5-14.1-11.6-20.3-18.4c13.2,12.6,28.3,23,44.7,30.6c8.2,3.8,16.7,6.9,25.4,9.3c8.7,2.4,17.6,4.1,26.6,5
				c17.9,1.9,36.2,0.7,53.8-3.4C321.3,494.7,338.3,487.7,353.7,478.1z"/>
		</g>
	</g>
	<g>
		<g>
			<path class="st0" d="M453.8,427.1c6.3-15.5,10.9-31.6,13.7-47.9c1.4-8.2,2.4-16.4,2.8-24.7c0.4-8.3,0.4-16.6-0.1-24.9
				c-1-16.5-4.1-33-9.1-48.8c-2.5-7.9-5.5-15.7-8.9-23.3c-0.8-1.9-1.7-3.8-2.6-5.7c-0.9-1.9-1.8-3.7-2.8-5.6
				c-1.9-3.7-4-7.3-6.1-10.9c9.6,13.7,17.2,28.8,22.7,44.7c2.8,7.9,4.9,16.1,6.6,24.3c1.6,8.3,2.7,16.6,3.3,25
				c0.5,8.4,0.5,16.8,0,25.2c-0.6,8.4-1.6,16.7-3.3,25C466.6,396.1,461.2,412.1,453.8,427.1z"/>
		</g>
		<g>
			<path class="st0" d="M273,553.5c8.9-1.3,17.8-2.8,26.5-4.8c4.4-1,8.7-2.1,13-3.3c4.3-1.2,8.6-2.5,12.8-4c4.2-1.4,8.4-3,12.6-4.6
				c4.2-1.6,8.3-3.4,12.3-5.2c8.1-3.7,16.1-7.8,24-12.2c-7.2,5.4-14.9,10.1-23,14.3c-4,2.1-8.1,4-12.3,5.8
				c-4.2,1.8-8.4,3.3-12.7,4.8c-4.3,1.4-8.6,2.7-13,3.9c-4.4,1.1-8.8,2.1-13.3,2.9C291,552.6,282,553.5,273,553.5z"/>
		</g>
		<g>
			<path class="st0" d="M87.9,463.3l9.5,11.5c0.8,0.9,1.6,1.9,2.4,2.8l2.4,2.8c1.6,1.9,3.2,3.8,4.9,5.6c1.6,1.9,3.3,3.7,5,5.5
				l2.5,2.7c0.9,0.9,1.7,1.8,2.5,2.7l10.3,10.8c-4.2-2.7-8.2-5.8-11.9-9.1c-1.9-1.6-3.7-3.4-5.5-5.2c-1.8-1.8-3.5-3.6-5.2-5.5
				c-1.6-1.9-3.3-3.8-4.8-5.8c-1.5-2-3.1-4-4.5-6.1C92.7,472.1,90.1,467.8,87.9,463.3z"/>
		</g>
		<g>
			<path class="st0" d="M290.2,145.4c-12.4-0.8-24.7-0.7-37,0.6c-12.3,1.2-24.4,3.4-36.3,6.7c-23.7,6.6-46.3,17-66.6,31
				c-20.3,13.9-38.3,31.1-52.9,50.9c-7.3,9.9-13.8,20.4-19.3,31.5c-5.6,11-10.2,22.5-13.9,34.3c3-12,7.3-23.7,12.5-35
				c5.3-11.2,11.6-22,18.8-32.2c7.2-10.2,15.4-19.6,24.2-28.4c8.9-8.7,18.6-16.6,28.9-23.7c20.6-14.1,43.5-24.6,67.7-30.7
				c12.1-3,24.4-5.1,36.8-6C265.5,143.8,277.9,144,290.2,145.4z"/>
		</g>
	</g>
</g>
</svg>
